<?xml version="1.0" encoding="UTF-8"?>
<svg width="14px" height="14px" viewBox="0 0 14 14" version="1.1" xmlns="http://www.w3.org/2000/svg" xmlns:xlink="http://www.w3.org/1999/xlink">
    <!-- Generator: Sketch 57 (83077) - https://sketch.com -->
    <title>Oval 7</title>
    <desc>Created with Sketch.</desc>
    <g id="Symbols-Copy" stroke="none" stroke-width="1" fill="none" fill-rule="evenodd">
        <g id="Types/Dark" transform="translate(-13.000000, -13.000000)" fill="#FFFFFF">
            <g id="Group" transform="translate(5.000000, 5.000000)">
                <path d="M15,22 C18.8659932,22 22,18.8659932 22,15 C22,11.1340068 18.8659932,8 15,8 C11.1340068,8 8,11.1340068 8,15 C8,18.8659932 11.1340068,22 15,22 Z M15.0972222,9.75 C18.0504115,9.75 20.4444444,12.1440329 20.4444444,15.0972222 C20.4444444,18.0504115 18.0504115,20.4444444 15.0972222,20.4444444 C14.8199275,20.4444444 14.5475625,20.4233372 14.2816465,20.3826418 C15.8741219,19.3045854 16.9444444,17.2977398 16.9444444,15 C16.9444444,12.8141173 15.9757949,10.891496 14.5107346,9.7816503 C14.703249,9.76078844 14.8989757,9.75 15.0972222,9.75 Z" id="Oval-7"></path>
            </g>
        </g>
    </g>
</svg>