<?xml version="1.0" encoding="UTF-8"?>
<svg width="14px" height="15px" viewBox="0 0 14 15" version="1.1" xmlns="http://www.w3.org/2000/svg" xmlns:xlink="http://www.w3.org/1999/xlink">
    <!-- Generator: Sketch 57 (83077) - https://sketch.com -->
    <title>Oval 9</title>
    <desc>Created with Sketch.</desc>
    <g id="Symbols-Copy" stroke="none" stroke-width="1" fill="none" fill-rule="evenodd">
        <g id="Types/Fight" transform="translate(-13.000000, -13.000000)" fill="#FFFFFF">
            <g id="Group" transform="translate(5.000000, 5.000000)">
                <path d="M11.6909091,8 C12.2734901,8 12.7857456,8.3010993 13.0805457,8.75616797 L13.2181818,8.75 C13.3264817,8.75 13.4323513,8.76040526 13.5348454,8.7802706 C13.8338287,8.45409964 14.2658066,8.25 14.7454545,8.25 C15.4269024,8.25 16.0121302,8.66196687 16.265671,9.2504337 L16.2727273,9.25 C16.3911934,9.25 16.5067515,9.26245045 16.6181645,9.28611423 C16.8810418,9.10528848 17.2009524,9 17.5454545,9 C18.260628,9 18.8698216,9.4537533 19.1008493,10.0890737 C19.2260944,10.1320297 19.3456313,10.1901887 19.4561722,10.2611419 C19.7109919,10.0956789 20.0170497,10 20.3454545,10 C21.2592348,10 22,10.7407652 22,11.6545455 L22,16.6491225 L21.999,16.668 L21.9957669,16.8488065 C21.8663066,20.2659779 18.7837381,23 15,23 C11.1340068,23 8,20.1458153 8,16.625 C8,14.9302696 8.7261305,13.3899935 9.91050626,12.2481386 C9.89980019,14.4969171 9.95421299,15.6062653 10.0745348,15.5788405 C10.3287446,15.5208988 10.3330147,13.4104011 10.0873451,9.2473473 C10.2686606,8.53014649 10.9178737,8 11.6909091,8 Z" id="Oval-9"></path>
            </g>
        </g>
    </g>
</svg>