<?xml version="1.0" encoding="UTF-8"?>
<svg width="15px" height="15px" viewBox="0 0 15 15" version="1.1" xmlns="http://www.w3.org/2000/svg" xmlns:xlink="http://www.w3.org/1999/xlink">
    <!-- Generator: Sketch 57 (83077) - https://sketch.com -->
    <title>Oval 3</title>
    <desc>Created with Sketch.</desc>
    <g id="Symbols-Copy" stroke="none" stroke-width="1" fill="none" fill-rule="evenodd">
        <g id="Types/Poison" transform="translate(-13.000000, -13.000000)" fill="#FFFFFF">
            <g id="Group" transform="translate(5.000000, 5.000000)">
                <path d="M15.5,8 C19.6421356,8 23,10.9637135 23,14.6196393 C23,16.5658413 22.0484224,18.3158787 20.5335172,19.527075 C20.5972721,19.7866086 20.6315789,20.0640015 20.6315789,20.3521443 C20.6315789,21.8145146 19.7479304,23 18.6578947,23 C18.0118956,23 17.4383843,22.5836308 17.0783319,21.9400163 C16.7196128,22.5835564 16.1460568,23 15.5,23 C14.7909722,23 14.1692671,22.4984187 13.8212756,21.745314 C13.4751916,22.498643 12.8536061,23 12.1447368,23 C11.0547012,23 10.1710526,21.8145146 10.1710526,20.3521443 C10.1710526,20.0141793 10.218249,19.6910029 10.3042818,19.3938307 C8.88433269,18.1896897 8,16.4958156 8,14.6196393 C8,10.9637135 11.3578644,8 15.5,8 Z M15.4013158,11.3901711 C12.9487355,11.3901711 10.9605263,12.8948256 10.9605263,14.750911 C10.9605263,16.6069965 12.9487355,18.111651 15.4013158,18.111651 C17.8538961,18.111651 19.8421053,16.6069965 19.8421053,14.750911 C19.8421053,12.8948256 17.8538961,11.3901711 15.4013158,11.3901711 Z" id="Oval-3"></path>
            </g>
        </g>
    </g>
</svg>