<?xml version="1.0" encoding="UTF-8"?>
<svg width="14px" height="11px" viewBox="0 0 14 11" version="1.1" xmlns="http://www.w3.org/2000/svg" xmlns:xlink="http://www.w3.org/1999/xlink">
    <!-- Generator: Sketch 57 (83077) - https://sketch.com -->
    <title>Path 8</title>
    <desc>Created with Sketch.</desc>
    <g id="Symbols-Copy" stroke="none" stroke-width="1" fill="none" fill-rule="evenodd">
        <g id="Types/Rock" transform="translate(-13.000000, -15.000000)" fill="#FFFFFF">
            <g id="Group" transform="translate(5.000000, 5.000000)">
                <path d="M18.2083168,16.0359605 L18.2482471,16.0786859 L19.5402498,18.0013275 C19.5842927,18.0668681 19.5803071,18.1509156 19.5358862,18.2113691 L19.4951075,18.2516275 L15.7388605,20.9460003 C15.707315,20.9686281 15.669837,20.9803242 15.6319599,20.9802362 L15.5755366,20.9711598 L12.3270519,19.907049 L17.9934943,16.0298184 C17.993916,16.0295299 17.9943389,16.0292432 17.994763,16.0289582 C18.0617467,15.9839455 18.1477762,15.9891919 18.2083168,16.0359605 Z M18.4174895,10.025577 L18.430915,10.0270729 C18.5107363,10.0389691 18.5707519,10.1008297 18.5839517,10.1761837 L18.5846516,10.2346594 L17.8948592,14.8630405 C17.8898916,14.8963721 17.8758635,14.9273376 17.8547377,14.9527871 L17.8179712,14.9864306 L11.1321679,19.6021331 C11.1008745,19.6237372 11.0640507,19.6347686 11.0269147,19.6344702 L10.9716289,19.6254304 L8.12589147,18.6949695 C8.06581544,18.6753266 8.02129052,18.6265651 8.00588359,18.5673945 L8,18.5213572 L8,15.5984606 C8,15.5700823 8.00660761,15.5422982 8.01906188,15.5172184 L8.04203318,15.4818908 L12.5106658,10.0911646 C12.5338,10.0632567 12.5644216,10.0431873 12.5983764,10.0329086 L12.6512895,10.0250775 L18.4174895,10.025577 Z M19.85606,10 C19.9357471,10 20.0062374,10.0516595 20.0302365,10.1276468 L20.0302365,10.1276468 L21.9618054,16.2435092 C21.9847719,16.3162274 21.9601452,16.3955609 21.9000374,16.4424911 L21.9000374,16.4424911 L20.6610433,17.4098568 C20.6596229,17.4109657 20.6581863,17.4120536 20.6567337,17.41312 C20.5754181,17.4728214 20.4611012,17.4552996 20.4013998,17.3739839 L20.4013998,17.3739839 L18.8535633,15.2657685 C18.8242281,15.2258128 18.8123913,15.1756505 18.8207697,15.1267954 L18.8207697,15.1267954 L19.6754923,10.1428775 C19.6896478,10.0603365 19.7612126,10 19.8449586,10 L19.8449586,10 Z" id="Path-8"></path>
            </g>
        </g>
    </g>
</svg>